<svg xmlns="http://www.w3.org/2000/svg" width="571" height="660"><g fill="none" fill-rule="evenodd"><path fill="#1C2023" d="M70.83 151.296c22.812-6.22 49.063-13.387 62.377-29.543 23.48-28.493 24.65-90.347 63.014-89.297 71.273 1.95 23.153 128.326 138.548 122.852 89.576-4.249 118.72-27.688 144.046-21.354 74.839 18.714-43.36 134.593 11.474 163.592 72.295 38.236 113.277 40.28 47.232 119.003-53.61 63.9 1.873 130.478-28.58 161.72-40.23 41.272-88.054 9.37-123.904 13.613-26.799 3.172-68.887 12.578-95.2 31.48-39.294 28.228-71.315 21.848-84.185-17.579-18.368-56.269-8.359-115.059-93.675-101.82-60.258 5.943-87.028-18.616-100.62-42.634-34.21-60.447 18.313-117.521 33.728-162.238 20.152-58.46-25.898-95.932-16.327-122.148 3.655-10.009 15.418-18.378 42.073-25.647"/><path fill="#4630EB" d="M363.942 107.465c-42.8 24.057-85.573 48.091-128.4 72.168-42.772 24.047-85.666 48.176-128.665 72.32l-.213 117.732-.212 117.965c42.955-24.188 85.901-48.388 128.798-72.554 42.913-24.173 85.811-48.327 128.7-72.47.015-39.193.014-78.42.012-117.58 0-39.16-.002-78.32-.02-117.58"/><path fill="#15181A" d="M413.6 150.046c-42.84 24.045-85.636 48.11-128.422 72.16-42.83 24.073-85.682 48.12-128.589 72.25-.06 39.234-.17 78.568-.246 117.837-.077 39.301-.154 78.603-.214 117.937 42.963-24.198 85.916-48.443 128.855-72.635 42.92-24.182 85.793-48.354 128.656-72.486.004-39.254-.024-78.41-.02-117.598.005-39.155-.024-78.344-.02-117.465"/><path fill="#FFF" d="M413.104 150.596c-35.055 19.609-70.08 39.23-105.095 58.844l-22.459 12.581c-18.813 10.538-37.63 21.071-56.455 31.608-23.988 13.427-47.99 26.862-72.007 40.321-.036 23.33-.09 46.696-.143 70.062-.036 15.724-.072 31.447-.103 47.16l-.002 1.047c-.075 38.465-.15 76.93-.21 115.427a173341.92 173341.92 0 0067.662-38.01c20.11-11.3 40.218-22.6 60.323-33.888a301662.9 301662.9 0 0042.803-24.036c28.586-16.054 57.158-32.1 85.726-48.127.002-19.457-.004-38.89-.01-58.314-.007-19.56-.012-39.11-.01-58.67.002-19.518-.004-39.045-.01-58.567-.006-19.154-.011-38.304-.01-57.438zM307.27 208.122c35.389-19.825 70.79-39.656 106.22-59.474l1.126-.63v1.29c-.002 19.562.003 39.142.01 58.726.006 19.522.012 39.05.01 58.568-.003 19.559.003 39.11.01 58.67.005 19.571.011 39.152.009 58.756v.444l-.385.216a236366.38 236366.38 0 00-86.111 48.343c-14.263 8.01-28.53 16.023-42.802 24.036-20.105 11.288-40.213 22.588-60.323 33.888-22.927 12.884-45.857 25.77-68.79 38.642l-1.128.633.002-1.292c.06-38.928.136-77.824.212-116.719l.002-1.047c.031-15.713.067-31.436.103-47.16.054-23.514.108-47.028.144-70.506l.001-.444.385-.215c24.145-13.532 48.274-27.038 72.39-40.537 18.825-10.537 37.642-21.07 56.456-31.608l22.459-12.58z"/><path fill="#15181A" d="M204.491 356.866c16.01-25.09 26.63-63.403 26.661-91.316.03-27.913-5.736-42.102-15.181-52.897-9.446-10.796-22.64-14.03-37.455-7.64a12513.16 12513.16 0 01-.083 35.766c17.069-5.925 30.147 14.167 30.102 37.499-.046 23.332-6.081 38.888-15.283 53.96 3.768 8.216 7.537 16.431 11.24 24.628"/><path fill="#FFF" d="M204.602 355.73c7.573-12.051 13.902-27.001 18.426-42.318 4.833-16.368 7.601-33.14 7.617-47.232.016-13.845-1.42-24.277-4.042-32.58-2.609-8.258-6.395-14.406-11.096-19.718-4.727-5.341-10.398-8.782-16.737-10.06-6.033-1.218-12.691-.479-19.742 2.44-.008 5.794-.016 11.578-.029 17.36-.011 5.605-.027 11.206-.05 16.803a18.86 18.86 0 015.29-.768c4.975.01 9.467 2.123 13.233 5.73 3.713 3.559 6.72 8.577 8.776 14.46 1.996 5.708 3.098 12.238 3.085 19.035-.023 11.726-1.57 21.5-4.28 30.24-2.671 8.61-6.467 16.206-11.048 23.665l.062.132c3.575 7.708 7.15 15.414 10.535 22.812zm19.887-41.9c-4.711 15.953-11.372 31.52-19.357 43.891l-.756 1.173-.58-1.267c-3.767-8.247-7.44-16.164-11.113-24.082l-.399-.86.211-.342c4.614-7.472 8.434-15.06 11.103-23.663 2.669-8.606 4.192-18.237 4.215-29.798.012-6.63-1.06-12.99-3.002-18.545-1.978-5.658-4.854-10.47-8.395-13.863-3.49-3.343-7.626-5.301-12.177-5.31-1.866-.004-3.807.318-5.807 1.005l-1.013.347.005-1.062c.025-5.946.042-11.888.055-17.833.012-5.947.02-11.9.03-17.86v-.499l.458-.195c7.513-3.204 14.637-4.028 21.107-2.723 6.673 1.346 12.628 4.952 17.578 10.545 4.835 5.463 8.727 11.783 11.406 20.263 2.664 8.436 4.124 19.014 4.108 33.028-.016 14.235-2.806 31.156-7.677 47.65zm-63.482 299.867l-1.46-27.086-1.458-27.148v-.097c.003-1.836-.326-3.3-.89-4.305-.246-.44-.526-.766-.829-.968a1.458 1.458 0 00-.816-.257c-.383 0-.833.136-1.343.423-1.499.845-2.906 2.658-3.964 4.912-1.103 2.348-1.79 5.11-1.794 7.737v.096c-.513 9.64-1.026 19.254-1.539 28.855-.512 9.6-1.026 19.187-1.54 28.775-.02 3.174-.848 6.485-2.164 9.283-1.388 2.949-3.354 5.396-5.555 6.636-1.078.608-2.15.895-3.177.893a5.146 5.146 0 01-2.9-.886c-.803-.538-1.488-1.3-2.025-2.258-.853-1.521-1.354-3.592-1.364-6.065l-.714-12.821c-.767-13.784-1.535-27.566-2.302-41.411v-.112c.014-1.84-.31-3.306-.872-4.31-.246-.437-.525-.762-.827-.964a1.452 1.452 0 00-.804-.254c-.393-.003-.854.135-1.373.428-1.507.85-2.914 2.663-3.968 4.916-1.103 2.358-1.787 5.135-1.79 7.79v.097l-2.107 39.325-.982 18.31h-.001c-.038 3.17-.865 6.49-2.182 9.296-1.372 2.922-3.31 5.349-5.503 6.583-1.075.606-2.144.892-3.17.89a5.141 5.141 0 01-2.9-.888c-.806-.541-1.491-1.305-2.028-2.264-.867-1.547-1.37-3.66-1.366-6.18h3.773c-.003 1.841.326 3.315.893 4.327.734 1.31 1.642 1.543 2.948.807 1.489-.838 2.88-2.647 3.934-4.892 1.113-2.37 1.808-5.157 1.829-7.79v-.082l.981-18.31c.702-13.098 1.405-26.195 2.107-39.326.022-3.189.837-6.498 2.146-9.295 1.378-2.943 3.332-5.378 5.537-6.622 1.099-.62 2.19-.91 3.236-.902a5.191 5.191 0 012.892.891c.803.539 1.488 1.3 2.024 2.255.855 1.523 1.352 3.596 1.348 6.077.766 13.842 1.533 27.622 2.3 41.402l.714 12.822v.104c-.012 8.3 5.022 6.13 7.83.166 1.111-2.363 1.806-5.137 1.81-7.763v-.096l1.539-28.775 1.54-28.855c.02-3.175.839-6.472 2.148-9.257 1.377-2.932 3.333-5.363 5.533-6.603 1.081-.61 2.158-.899 3.192-.897a5.156 5.156 0 012.903.88c.81.54 1.5 1.307 2.042 2.273.853 1.52 1.354 3.587 1.363 6.063l1.46 27.148c.425 7.916.851 15.825 1.277 23.727l.181 3.367v.104c-.061 8.167 4.931 6.402 7.84.189 1.107-2.366 1.796-5.143 1.8-7.764v-.096c.482-9.032.972-18.07 1.462-27.117.55-10.156 1.101-20.322 1.643-30.497.02-3.173.832-6.472 2.135-9.26 1.37-2.93 3.313-5.356 5.508-6.593 1.097-.619 2.188-.909 3.231-.901a5.167 5.167 0 012.878.885c.8.535 1.48 1.292 2.014 2.244.853 1.52 1.35 3.596 1.345 6.09.718 12.85 1.436 25.662 2.154 38.477l.88 15.687v.104c-.003 1.828.326 3.292.891 4.299.745 1.327 1.674 1.546 2.99.804 1.505-.848 2.908-2.663 3.96-4.908 1.109-2.362 1.795-5.137 1.797-7.76v-.105c.54-9.807 1.057-19.363 1.562-28.785.515-9.6 1.024-19.21 1.534-28.847.02-3.169.84-6.47 2.149-9.26 1.379-2.941 3.333-5.376 5.53-6.613 1.077-.607 2.149-.895 3.178-.894a5.136 5.136 0 012.898.885c.804.538 1.489 1.3 2.026 2.26.854 1.523 1.355 3.601 1.365 6.088a245366.202 245366.202 0 002.938 54.215v.097c-.002 1.845.328 3.32.897 4.332.248.443.53.771.834.975.244.163.517.25.809.25.382 0 .833-.136 1.343-.425l1.85 3.308c-1.082.611-2.16.9-3.193.9a5.163 5.163 0 01-2.91-.888c-.806-.54-1.493-1.304-2.033-2.266-.857-1.526-1.36-3.605-1.37-6.09l-1.47-27.08-1.468-27.135v-.097c.003-1.848-.327-3.322-.892-4.33-.247-.441-.526-.768-.827-.97a1.415 1.415 0 00-.797-.246c-.378 0-.824.134-1.33.419-1.5.845-2.905 2.657-3.96 4.906-1.105 2.353-1.79 5.122-1.793 7.756v.096c-.51 9.637-1.02 19.246-1.535 28.846-.524 9.779-1.044 19.406-1.56 28.8h-.001c-.021 3.158-.84 6.462-2.152 9.26-1.377 2.934-3.327 5.372-5.529 6.614-1.083.61-2.16.9-3.193.898a5.174 5.174 0 01-2.912-.888c-.807-.54-1.495-1.307-2.035-2.268-.853-1.52-1.354-3.586-1.364-6.05l-.88-15.686c-.719-12.818-1.437-25.633-2.155-38.485v-.111c.013-1.855-.31-3.324-.87-4.325-.243-.433-.52-.754-.816-.953a1.421 1.421 0 00-.791-.247c-.39-.003-.85.134-1.367.426-1.497.843-2.893 2.647-3.94 4.887-1.097 2.348-1.777 5.115-1.78 7.754v.096c-.541 10.176-1.092 20.342-1.642 30.498-.491 9.046-.981 18.085-1.463 27.116-.021 3.156-.842 6.466-2.155 9.27-1.377 2.94-3.327 5.388-5.52 6.636-1.095.623-2.181.914-3.22.906a5.195 5.195 0 01-2.893-.894c-.799-.536-1.484-1.295-2.024-2.249-.872-1.538-1.38-3.627-1.374-6.109m277.977-256.831c-29 16.326-58.033 32.687-87.068 49.008-29.099 16.356-58.168 32.731-87.234 49.076l-.074 78.322c29.08-16.365 58.193-32.73 87.306-49.104 29.046-16.338 58.092-32.676 87.072-49 0-26.123 0-52.212-.002-78.302"/><path fill="#000" d="M438.49 358.44c-8.22 4.624-16.44 9.251-24.661 13.879-20.506 11.542-41.023 23.092-61.542 34.621a108944.6 108944.6 0 00-47.98 26.98c-13.045 7.339-26.087 14.675-39.128 22.006l-.072 76.785c18.248-10.265 36.508-20.53 54.774-30.797 10.553-5.932 21.108-11.865 31.663-17.8l.929-.522c28.694-16.133 57.388-32.267 86.017-48.387V358.44zm-25.401 12.558l25.784-14.512 1.127-.633v80.24l-.385.216c-28.757 16.193-57.58 32.398-86.402 48.604l-.928.522a206964.24 206964.24 0 01-31.664 17.8c-18.64 10.478-37.278 20.954-55.9 31.43l-1.127.635c.026-26.755.053-53.509.075-80.263l.385-.216c13.17-7.403 26.34-14.811 39.512-22.221 15.988-8.994 31.98-17.99 47.98-26.98a92830.287 92830.287 0 0061.543-34.622z"/><path fill="#0BDA8F" d="M404.737 407.558L351.98 437.15l-52.889 29.713-.013 16.503 6.877 3.27 46.05-32.99 59.608-42.819z"/><path fill="#FFF" d="M404.317 408.248l-52.323 29.513-52.414 29.61-.01 15.643 6.036 2.886 45.605-32.853 58.469-42.234-5.363-2.565zm-53.06 28.193l53.004-29.897 8.366 4-60.537 43.728-46.333 33.378-7.692-3.678.013-17.49 53.179-30.041z"/><path fill="#15181A" d="M411.613 410.6c-17.56 9.895-35.128 19.774-52.647 29.68-17.567 9.935-35.186 19.873-52.779 29.803l-.012 16.553c17.595-9.966 35.23-19.88 52.817-29.81 17.502-9.882 35.09-19.79 52.618-29.72l.003-16.507"/><path fill="#FFF" d="M411.116 412.182l-13.783 7.772a25458.417 25458.417 0 00-37.996 21.448 54298.886 54298.886 0 01-42.166 23.835l-10.486 5.923-.011 14.905c11.838-6.71 22.182-12.546 32.52-18.38 6.48-3.656 12.958-7.31 19.429-10.968 5.057-2.858 10.121-5.718 15.19-8.58 13.047-7.37 26.118-14.751 37.3-21.092l.003-14.863zm-14.524 6.445l14.909-8.407 1.126-.635-.003 18.344-.385.218a23412.343 23412.343 0 01-37.686 21.316l-15.19 8.58c-6.471 3.658-12.949 7.313-19.429 10.97-11.768 6.64-23.544 13.284-33.646 19.011l-1.127.64.014-18.396 11.255-6.358c14.062-7.943 28.131-15.89 42.167-23.835 12.647-7.158 25.32-14.302 37.995-21.448zM384.15 39.876c-1.625.911-2.953 3.521-2.952 5.802 0 2.282 1.33 3.4 2.957 2.488 1.627-.913 2.939-3.507 2.937-5.792-.003-2.285-1.317-3.41-2.942-2.498zm71.122 43.321c-1.632.918-2.95 3.539-2.931 5.842.018 2.304 1.366 3.414 3 2.495 1.633-.919 2.927-3.51 2.908-5.818-.02-2.307-1.344-3.437-2.977-2.519zm-.136-16.693c-1.63.917-2.945 3.527-2.927 5.83.019 2.304 1.364 3.434 2.995 2.517 1.63-.917 2.922-3.522 2.903-5.825-.02-2.302-1.342-3.438-2.971-2.522zm-.137-16.637c-1.626.915-2.938 3.52-2.92 5.818.017 2.3 1.36 3.416 2.988 2.5 1.628-.915 2.918-3.518 2.898-5.811-.02-2.294-1.34-3.422-2.966-2.507zm-.135-16.574c-1.624.913-2.934 3.498-2.916 5.788.018 2.29 1.359 3.4 2.983 2.485 1.625-.913 2.913-3.501 2.894-5.79-.02-2.29-1.338-3.396-2.961-2.483zm-.135-16.519c-1.621.912-2.929 3.49-2.911 5.767.018 2.276 1.356 3.391 2.978 2.48 1.622-.913 2.907-3.505 2.888-5.78-.02-2.275-1.335-3.378-2.955-2.467zM454.594.32c-1.618.91-2.924 3.496-2.906 5.764.018 2.267 1.354 3.365 2.973 2.454 1.62-.91 2.902-3.491 2.883-5.757-.019-2.266-1.332-3.371-2.95-2.461zm-11.17 89.522c-1.637.92-2.952 3.533-2.937 5.843.015 2.31 1.357 3.429 2.994 2.51 1.638-.92 2.953-3.534 2.937-5.838-.017-2.305-1.359-3.434-2.995-2.515zm-.116-16.695c-1.633.917-2.939 3.525-2.924 5.83.016 2.306 1.347 3.431 2.982 2.513 1.634-.918 2.948-3.53 2.931-5.835-.017-2.304-1.356-3.426-2.99-2.508zm-.116-16.65c-1.63.916-2.933 3.519-2.918 5.82.015 2.3 1.344 3.413 2.976 2.496 1.632-.917 2.943-3.513 2.926-5.813-.016-2.3-1.353-3.418-2.984-2.502zm-.115-16.585c-1.627.914-2.928 3.501-2.913 5.789.016 2.286 1.342 3.405 2.971 2.49 1.629-.915 2.938-3.515 2.92-5.8-.015-2.287-1.35-3.393-2.978-2.479zm-.113-16.521c-1.625.917-2.924 3.489-2.91 5.767.016 2.277 1.34 3.398 2.967 2.484 1.625-.913 2.932-3.521 2.916-5.798-.017-2.277-1.349-3.37-2.973-2.453zm-.114-16.476c-1.622.91-2.919 3.495-2.903 5.764.014 2.269 1.336 3.38 2.96 2.469 1.623-.912 2.927-3.5 2.91-5.768-.016-2.268-1.346-3.377-2.967-2.465zM431.582 96.49c-1.632.916-2.954 3.538-2.942 5.849.013 2.312 1.356 3.426 2.99 2.509 1.633-.918 2.955-3.529 2.941-5.84-.013-2.31-1.356-3.435-2.989-2.518zm-.094-16.717c-1.63.916-2.95 3.531-2.937 5.838.012 2.307 1.353 3.427 2.984 2.512 1.63-.916 2.95-3.53 2.936-5.836-.013-2.307-1.354-3.429-2.983-2.514zm-.095-16.651c-1.626.913-2.943 3.527-2.93 5.825.011 2.298 1.35 3.41 2.977 2.496 1.628-.914 2.945-3.513 2.932-5.815-.014-2.301-1.352-3.42-2.979-2.506zm-.093-16.598c-1.624.912-2.939 3.507-2.927 5.796.013 2.288 1.348 3.411 2.973 2.499 1.625-.913 2.94-3.525 2.927-5.812-.014-2.288-1.35-3.394-2.973-2.483zm-.094-16.533c-1.62.91-2.933 3.495-2.921 5.774.012 2.28 1.345 3.395 2.967 2.484 1.623-.911 2.935-3.512 2.922-5.791-.014-2.279-1.348-3.377-2.968-2.467zm-.094-16.487c-1.617.908-2.928 3.5-2.916 5.77.013 2.271 1.344 3.392 2.963 2.478 1.62-.914 2.93-3.51 2.916-5.779-.013-2.27-1.344-3.378-2.963-2.47zm-11.394 89.633c-1.636.919-2.933 3.537-2.924 5.854.01 2.318 1.323 3.439 2.96 2.52 1.638-.92 2.974-3.533 2.963-5.846-.01-2.312-1.363-3.446-3-2.528zm-.074-16.727c-1.633.917-2.928 3.524-2.918 5.832.01 2.309 1.32 3.45 2.955 2.532 1.635-.918 2.968-3.54 2.957-5.843-.01-2.303-1.36-3.438-2.994-2.521zm-.073-16.655c-1.63.916-2.923 3.512-2.913 5.811.009 2.3 1.318 3.433 2.95 2.516 1.631-.916 2.963-3.53 2.952-5.83-.01-2.298-1.359-3.412-2.989-2.497zm-.073-16.6c-1.627.914-2.918 3.492-2.909 5.781.01 2.29 1.317 3.425 2.945 2.51 1.63-.915 2.958-3.529 2.947-5.818-.01-2.29-1.356-3.387-2.983-2.473zm-.073-16.544c-1.624.912-2.912 3.487-2.903 5.769.01 2.28 1.314 3.407 2.94 2.494 1.626-.913 2.952-3.517 2.941-5.797-.01-2.28-1.353-3.379-2.978-2.466zm-.072-16.509c-1.622.91-2.908 3.499-2.899 5.775.01 2.277 1.312 3.39 2.935 2.48 1.623-.912 2.947-3.505 2.937-5.776-.011-2.271-1.351-3.39-2.973-2.479zm-11.46 89.681c-1.633.912-2.96 3.536-2.953 5.855.007 2.32 1.345 3.441 2.978 2.524 1.634-.917 2.96-3.536 2.953-5.854-.008-2.318-1.347-3.436-2.979-2.525zm-.054-16.74c-1.628.915-2.953 3.534-2.947 5.844.007 2.31 1.343 3.433 2.974 2.517 1.63-.915 2.955-3.533 2.947-5.841-.008-2.31-1.344-3.434-2.974-2.52zm-.052-16.666c-1.626.913-2.948 3.521-2.942 5.822.007 2.301 1.34 3.416 2.968 2.502 1.628-.914 2.95-3.52 2.942-5.82-.007-2.3-1.341-3.417-2.968-2.504zm-.052-16.61c-1.624.91-2.943 3.512-2.937 5.8.006 2.287 1.338 3.407 2.963 2.495 1.625-.912 2.945-3.517 2.937-5.808-.008-2.291-1.34-3.4-2.963-2.488zm-.052-16.558c-1.62.91-2.938 3.506-2.931 5.789.006 2.283 1.335 3.391 2.957 2.48 1.622-.91 2.94-3.514 2.932-5.796-.008-2.282-1.337-3.383-2.958-2.473zm-.052-16.52c-1.617.909-2.932 3.508-2.926 5.786.006 2.278 1.333 3.392 2.952 2.484 1.62-.91 2.934-3.508 2.927-5.785-.008-2.277-1.335-3.393-2.953-2.485zm-11.58 89.735c-1.636.918-2.961 3.545-2.958 5.866.004 2.32 1.337 3.447 2.974 2.528 1.638-.92 2.947-3.532 2.942-5.852-.005-2.32-1.322-3.46-2.958-2.542zm-.031-16.752c-1.633.917-2.957 3.534-2.953 5.845.004 2.312 1.334 3.444 2.968 2.531 1.635-.913 2.946-3.529 2.945-5.84-.002-2.31-1.327-3.452-2.96-2.536zm-.032-16.669c-1.63.916-2.95 3.522-2.947 5.824.003 2.303 1.331 3.422 2.963 2.507 1.631-.916 2.944-3.517 2.94-5.82-.006-2.3-1.326-3.425-2.956-2.51zm-.031-16.622c-1.627.913-2.946 3.513-2.942 5.802.003 2.289 1.329 3.414 2.958 2.5 1.628-.915 2.939-3.519 2.934-5.807-.006-2.288-1.323-3.409-2.95-2.495zm-.032-16.56c-1.624.912-2.94 3.506-2.936 5.79.003 2.285 1.326 3.398 2.952 2.485 1.626-.912 2.934-3.515 2.929-5.794-.005-2.279-1.32-3.393-2.945-2.48zm-.03-16.54c-1.622.91-2.936 3.503-2.932 5.787.003 2.284 1.324 3.399 2.947 2.487 1.623-.91 2.93-3.503 2.924-5.782-.005-2.279-1.318-3.403-2.94-2.493zm-11.693 89.788c-1.64.919-2.979 3.55-2.978 5.871 0 2.323 1.342 3.458 2.983 2.538 1.642-.92 2.966-3.54 2.963-5.862-.002-2.321-1.328-3.467-2.968-2.547zm-.01-16.754c-1.637.913-2.974 3.537-2.973 5.85 0 2.314 1.34 3.44 2.978 2.522 1.638-.919 2.96-3.536 2.957-5.85-.002-2.312-1.326-3.436-2.962-2.522zm-.011-16.681c-1.634.916-2.968 3.53-2.968 5.83.001 2.299 1.338 3.423 2.973 2.506 1.636-.917 2.955-3.53 2.953-5.828-.002-2.299-1.324-3.424-2.958-2.508zm-.01-16.626c-1.631.915-2.963 3.505-2.963 5.8 0 2.294 1.335 3.414 2.968 2.5 1.633-.916 2.949-3.527 2.947-5.817-.002-2.289-1.321-3.397-2.952-2.483zm-.01-16.57c-1.629.913-2.959 3.505-2.958 5.787.001 2.281 1.333 3.398 2.963 2.484 1.63-.914 2.944-3.51 2.941-5.794-.002-2.286-1.318-3.39-2.947-2.478z"/><path fill="#0BDA8F" d="M112.721 360.922c9.38-7.726 18.8-15.492 28.18-23.259-5.912-32.732 16.015-98.798 48.58-113.21.062-14.988.083-29.976.104-45.006-65.358 30.726-86.502 115.071-76.864 181.475"/><path fill="#FFF" d="M113.042 360.074c4.374-3.588 8.756-7.184 13.138-10.785 4.617-3.794 9.234-7.592 13.841-11.391-3.047-17.673 1.792-44.649 11.933-68.185 8.852-20.544 21.762-38.507 37.026-45.471.03-7.351.05-14.698.067-22.048.014-7.118.025-14.24.035-21.371-29.509 14.187-49.895 39.354-62.414 68.79-14.697 34.555-18.558 74.983-13.626 110.46zm14.1-9.616c-4.73 3.886-9.461 7.769-14.181 11.64l-1.038.851-.194-1.329c-5.253-36.043-1.45-77.347 13.544-112.6 12.808-30.114 33.78-55.818 64.247-70.081l1.08-.506-.003 1.19c-.01 7.533-.021 15.054-.037 22.57-.016 7.52-.037 15.033-.069 22.542l-.002.494-.449.197c-15.075 6.645-27.888 24.457-36.691 44.886-10.12 23.485-14.916 50.371-11.763 67.756l.079.436-.343.282c-4.72 3.893-9.45 7.785-14.18 11.672z"/><path fill="#15181A" d="M106.452 362.039c7.186 47.41 46.455 63.76 71.15 49.865 24.693-13.895 28.026-22.392 39.357-40.19-4.695-10.387-9.473-20.797-14.25-31.208-7.12 11.69-10.09 17.826-25.043 26.246-14.952 8.42-37.903-.8-42.775-28.134a13856.156 13856.156 0 01-28.44 23.42"/><path fill="#FFF" d="M107.06 361.688c1.569 10.079 4.6 18.722 8.631 25.94 5.802 10.386 13.676 17.819 22.244 22.324 8.546 4.493 17.785 6.075 26.341 4.769 4.35-.664 8.52-2.075 12.334-4.23 21.703-12.261 26.68-20.282 35.414-34.356.972-1.566 1.992-3.21 3.225-5.158-4.516-10.029-8.96-19.757-13.403-29.48l-.68 1.13c-6.19 10.288-9.746 16.198-23.754 24.118a23.851 23.851 0 01-7.54 2.708c-5.512.99-11.443.107-16.91-2.664-5.448-2.76-10.433-7.393-14.08-13.914-2.145-3.837-3.826-8.329-4.865-13.476a9997.264 9997.264 0 01-13.154 10.89 19241.77 19241.77 0 01-13.803 11.399zm7.315 26.681c-4.174-7.472-7.296-16.428-8.873-26.878l-.064-.423.333-.274c4.704-3.883 9.42-7.776 14.135-11.674 4.716-3.898 9.431-7.801 14.136-11.705l.995-.825.227 1.28c.977 5.504 2.695 10.256 4.935 14.263 3.491 6.243 8.25 10.673 13.441 13.303 5.17 2.62 10.771 3.455 15.972 2.521a22.336 22.336 0 007.062-2.536c13.66-7.723 17.14-13.507 23.2-23.578.383-.638.78-1.297 1.42-2.353l.737-1.215.87 1.905c4.71 10.306 9.42 20.61 13.89 30.544l.168.371-.22.348a686.126 686.126 0 00-3.434 5.494c-8.865 14.285-13.917 22.426-35.957 34.879-3.975 2.245-8.32 3.716-12.847 4.407-8.862 1.353-18.424-.282-27.262-4.93-8.818-4.636-16.912-12.27-22.864-22.924z"/><path fill="#15181A" d="M500.83 603.764L445.691 630.6c-17.924-30.803-17.103-27.556-24.17-35.521-2.358-2.657-6.442-8.124-11.515-14.977-2.979-4.022-5.702-8.868-9.058-14.824-3.41-6.051-12.094-14.315-14.865-25.733l-.36-.194c-8.722.953-14.336-.564-16.84-4.552 4.415-1.838 9.25-5.806 13.745-7.3l.048-2.1-.101-.425c-12.404.965-23.145-.955-29.765-7.965 0 0 8.88-3.58 18.093-6.189-5.493-1.22-9.581-3.86-12.337-7.935 19.891-7.184 36.842-18.53 55.976-5.054a256.276 256.276 0 00-3.648-4.372c-32.331-19.286-52.852-28.134-51.086-45.347 16.69 9.596 39.435 16.898 65.701 30.767 17.05 15.203 28.788 29.221 35.211 42.054 16.3 31.856 13.715 60.954 40.108 82.832"/><path fill="#FFF" d="M426.44 545.438c-3.782-9.485-7.436-16.754-11.236-22.137-3.75-5.314-7.633-8.767-11.914-10.682-2.336-1.045-4.158-1.674-6.551-1.876-2.439-.205-5.492.024-10.275.699-7.06.997-13.002.813-17.824-.552-4.897-1.385-8.64-3.981-11.231-7.788l-.543-.797.91-.327c3.352-1.204 6.704-2.562 9.994-3.895 15.889-6.438 30.356-12.3 46.47-1.02l-.865 1.227c-15.44-10.81-29.548-5.093-45.04 1.184-2.961 1.2-5.972 2.42-9.12 3.573 2.355 3.078 5.631 5.211 9.83 6.4 4.622 1.307 10.36 1.477 17.214.51 4.903-.692 8.052-.925 10.603-.71 2.596.218 4.548.89 7.04 2.004 4.536 2.03 8.62 5.646 12.532 11.187 3.863 5.474 7.571 12.845 11.4 22.448l-1.393.552z"/><path fill="#FFF" d="M371.302 511.45c-7.243 2.118-14.256 4.851-16.86 5.896 2.91 2.835 6.611 4.73 10.859 5.872 5.253 1.413 11.344 1.678 17.807 1.15l.118 1.552c-6.613.54-12.868.262-18.3-1.199-4.912-1.32-9.148-3.608-12.368-7.128l-.76-.831 1.024-.426c.026-.01 8.875-3.693 18.075-6.382l.405 1.497zm18.007 28.003c-4.414 1.058-8.847 1.164-12.519.5-3.835-.692-6.878-2.239-8.285-4.44l-.487-.76.843-.345c2.003-.82 4.35-2.274 6.733-3.75 2.913-1.805 5.876-3.641 8.451-4.483l.482 1.444c-2.41.787-5.286 2.57-8.114 4.322-2.1 1.301-4.174 2.587-6.058 3.47 1.35 1.461 3.75 2.516 6.712 3.051 3.473.627 7.68.524 11.88-.482l.362 1.473zm103.134 89.197c-19.726 14.274-42.024 11.87-47.026 2.042-3.65-7.172-.17-19.104 12.985-25.409 14.766-7.077 35.091-8.592 42.579-1.437 5.182 4.95 4.001 15.73-8.538 24.804"/><path fill="#FFF" d="M493.239 628.63a57.353 57.353 0 01-7.718 4.695c-8.319 4.191-16.651 5.747-23.596 5.315-7.052-.438-12.71-2.93-15.546-6.81a10.706 10.706 0 01-1.009-1.684c-1.782-3.681-1.803-8.489.246-13.18 2.024-4.636 6.07-9.169 12.433-12.374.183-.092.404-.2.662-.323 7.63-3.643 16.74-5.812 24.811-6.083 7.705-.26 14.504 1.218 18.264 4.797a9.47 9.47 0 011.13 1.285c1.72 2.353 2.389 5.51 1.704 9.02-.67 3.432-2.639 7.21-6.193 10.891-1.458 1.51-3.18 3.005-5.188 4.451zm-8.396 3.36a55.787 55.787 0 007.51-4.572c1.94-1.397 3.595-2.831 4.988-4.275 3.338-3.458 5.18-6.97 5.798-10.136.603-3.088.035-5.837-1.444-7.86a8.116 8.116 0 00-.952-1.087c-3.446-3.28-9.85-4.628-17.173-4.381-7.874.265-16.763 2.382-24.21 5.936-.179.086-.39.19-.633.312-6.02 3.034-9.836 7.29-11.73 11.63-1.872 4.285-1.87 8.64-.27 11.945l.102.203c.219.428.477.843.771 1.246 2.572 3.518 7.818 5.786 14.413 6.196 6.704.416 14.764-1.094 22.83-5.157z"/><path fill="#4630EB" d="M437.972 318.341c-11.162 6.322-22.323 12.64-33.452 18.957 0 8.888-.002 17.777-.004 26.665 11.163-6.318 22.293-12.635 33.456-18.957v-26.665m-105.446 9.124c-11.142 6.25-22.282 12.5-33.39 18.752l-.058 76.548c11.146-6.294 22.292-12.55 33.437-18.809.015-25.497.03-50.994.01-76.49"/><path fill="#0BDA8F" d="M248.684 320.04c10.1-5.643 20.2-11.287 31.013-17.291l1.132-.63c-.038 44.44-.073 88.88-.115 133.321l-.387.217-10.012 5.598c-7.935 4.438-15.875 8.879-23.831 13.318l-1.138.634.003-1.296c.028-10.955.049-21.926.064-32.902.016-10.976.027-21.955.04-32.927l.068-66.274 3.163-1.767zm119.508-96.16c5.63-3.11 11.258-6.222 16.879-9.333l1.138-.63.001 1.289c.016 15.953.013 31.895.011 47.824-.001 10.577-.003 21.148 0 31.714.005 13.256.01 26.521.017 39.786.006 13.265.015 26.53.029 39.786v.443l-2.886 1.595a25698.182 25698.182 0 00-31.45 17.393l-1.139.63v-1.29c-.014-15.913-.008-31.84-.003-47.764.004-10.61.007-21.22.006-31.824v-1.191c-.005-26.09-.009-52.244.003-78.366v-.442l.39-.216c5.663-3.135 11.333-6.27 17.004-9.403"/><path fill="#0BDA8F" d="M385.199 216.959c-5.245 2.902-10.497 5.805-15.749 8.707-5.544 3.064-11.088 6.128-16.624 9.192-.012 25.988-.008 52.006-.004 77.962v1.192c.002 10.609-.002 21.224-.005 31.84-.006 15.502-.01 31.006.001 46.498 10.091-5.591 20.209-11.18 30.329-16.77l2.106-1.164c-.013-13.115-.021-26.239-.028-39.362-.007-13.272-.011-26.543-.016-39.806-.004-10.571-.002-21.148 0-31.73.002-15.508.004-31.028-.01-46.56m-106.397 87.189a14016.92 14016.92 0 00-29.886 16.561l-2.389 1.326-.069 64.982c-.01 10.904-.022 21.817-.038 32.725a29800.35 29800.35 0 01-.06 31.411c7.578-4.202 15.142-8.405 22.702-12.606l9.628-5.349.112-129.05z"/><path fill="#15181A" d="M528.203 290.968c-13.438 0-24.332 10.894-24.332 24.332 0 13.437 10.894 24.331 24.332 24.331s24.332-10.894 24.332-24.331c0-13.438-10.894-24.332-24.332-24.332"/><path fill="#FFF" d="M528.203 291.47a23.753 23.753 0 00-16.85 6.98 23.754 23.754 0 00-6.98 16.85c0 6.58 2.667 12.538 6.98 16.85a23.754 23.754 0 0016.85 6.98c6.58 0 12.538-2.668 16.85-6.98a23.754 23.754 0 006.98-16.85 23.749 23.749 0 00-6.98-16.85 23.754 23.754 0 00-16.85-6.98zm-17.922 5.908a25.265 25.265 0 0117.922-7.424 25.266 25.266 0 0117.922 7.424 25.266 25.266 0 017.423 17.922 25.266 25.266 0 01-7.423 17.921 25.266 25.266 0 01-17.922 7.424c-7 0-13.336-2.837-17.922-7.424a25.265 25.265 0 01-7.424-17.921c0-7 2.837-13.336 7.424-17.922z"/><path fill="#FFF" d="M513.274 295.094c-5.727 4.475-9.403 11.396-9.403 19.164 0 13.492 11.085 24.43 24.76 24.43a24.868 24.868 0 0014.78-4.829c-27.434 5.597-37.61-22.21-30.137-38.765"/><path fill="#FFF" d="M511.07 298.902a23.185 23.185 0 00-4.375 6.102 22.636 22.636 0 00-2.34 10.054c0 6.38 2.637 12.155 6.9 16.335 4.263 4.181 10.152 6.767 16.658 6.767 2.59 0 5.081-.41 7.41-1.166a23.717 23.717 0 003.67-1.542c-5.331.553-9.945-.212-13.835-1.91-4.047-1.769-7.3-4.545-9.756-7.9-2.445-3.342-4.097-7.256-4.954-11.318-1.094-5.188-.888-10.626.623-15.422zm-5.72 5.465a24.763 24.763 0 017.025-8.581l2.38-1.848-1.236 2.72c-2.332 5.135-2.863 11.42-1.608 17.374.816 3.866 2.384 7.586 4.703 10.754 2.307 3.154 5.36 5.761 9.153 7.418 4.463 1.95 9.965 2.588 16.507 1.261l3.294-.668-2.7 1.974a25.154 25.154 0 01-7.076 3.618 25.474 25.474 0 01-7.88 1.24c-6.918 0-13.182-2.75-17.716-7.197-4.535-4.446-7.339-10.589-7.339-17.374 0-3.83.896-7.457 2.492-10.691zm-75.488 302.629c.687-3.51 1.892-6.593 3.616-9.25 1.73-2.667 3.976-4.895 6.737-6.686l.799 1.252c-2.585 1.677-4.684 3.758-6.296 6.243-1.618 2.493-2.752 5.402-3.403 8.726l-1.453-.285z"/><path fill="#4630EB" d="M372.074 302.86l78.084-43.528v4.306l-78.084 43.55v-4.328zm0-26.438l110.123-61.421.384.68v3.434l-110.507 61.636v-4.329zm0-27.229l110.507-61.635v4.328l-110.507 61.636v-4.329zm94.183 1.137l16.023-8.937.3.533v3.628l-16.323 9.081v-4.305z"/><path fill="#FFF" d="M528.71 389.309c-10.919 0-19.77 2.27-19.77 5.069 0 2.8 8.851 5.069 19.77 5.069 10.918 0 19.77-2.27 19.77-5.07 0-2.799-8.852-5.068-19.77-5.068"/><path fill="#4630EB" d="M125.987 113.548l-25.482 12.525-25.482 12.523 25.852 15.864 25.853 15.863-.37-28.387zM294.01 606.267l-14.194-14.193-14.194 14.193 14.194 14.194z"/><path fill="#FFF" d="M522.12 382.212c0-3.772 3.518-4.324 6.875-4.851 2.427-.381 4.75-.745 4.802-2.423.054-1.804-2.362-2.28-4.877-2.775-3.33-.655-6.8-1.338-6.8-4.955 0-3.769 3.554-4.336 6.924-4.873 2.439-.39 4.757-.76 4.754-2.424-.004-1.823-2.425-2.292-4.929-2.777-3.316-.642-6.75-1.307-6.75-4.931 0-3.793 2.784-3.904 5.69-4.019 2.416-.096 4.945-.196 4.945-3.484h1.506c0 4.726-3.269 4.855-6.392 4.98-2.167.085-4.242.168-4.242 2.523 0 2.389 2.81 2.933 5.525 3.46 3.122.603 6.14 1.188 6.147 4.248.007 2.94-2.93 3.409-6.018 3.902-2.752.439-5.654.901-5.654 3.395 0 2.385 2.848 2.945 5.582 3.483 3.155.62 6.186 1.217 6.09 4.291v.003c-.092 2.915-3.017 3.374-6.073 3.854-2.734.429-5.6.878-5.6 3.373h-1.505zM445.343 630.6c-11.348-19.36-19.244-29.163-26.192-37.79-11.524-14.307-20.458-25.398-38.022-70.915-1.458-3.781-1.622-6.5-.918-8.306.508-1.304 1.442-2.142 2.664-2.568 1.145-.4 2.532-.42 4.039-.112 3.833.783 8.579 3.736 11.969 7.935 1.34 1.66 2.846 3.625 4.574 5.88 2.65 3.459 5.825 7.602 9.682 12.32l.03.036.024.038c4.47 7.103 9.637 9.92 13.948 9.806a8.733 8.733 0 004.7-1.489c1.36-.92 2.475-2.236 3.235-3.854 1.961-4.18 1.548-10.353-3.068-16.99l-.035-.05-.01-.018a153.015 153.015 0 00-9.151-14.799c-3.45-4.928-7.428-10.016-12.248-15.631-4.66-2.759-9.032-5.279-13.133-7.642-24.95-14.38-39.993-23.051-38.425-38.227l.116-1.127.998.542c10.748 5.84 21.177 10.253 31.14 14.468 28.049 11.868 52.423 22.18 70.508 58.453h-.002c6.03 11.7 9.49 23.005 12.771 33.72 5.616 18.341 10.697 34.937 27.306 48.605l-.96 1.164c-16.961-13.958-22.106-30.761-27.792-49.333-3.262-10.654-6.704-21.895-12.675-33.48l-.005-.009c-17.834-35.768-41.97-45.98-69.743-57.731-9.67-4.092-19.777-8.368-30.238-13.977-.579 13.527 14 21.932 37.76 35.626 4.166 2.401 8.61 4.963 13.252 7.711l.107.064.082.096c4.88 5.68 8.912 10.836 12.42 15.846a154.18 154.18 0 019.237 14.925c4.927 7.114 5.318 13.826 3.156 18.433-.875 1.865-2.17 3.389-3.755 4.461a10.24 10.24 0 01-5.512 1.75c-4.788.125-10.451-2.882-15.24-10.47-3.882-4.75-7.043-8.876-9.683-12.321-1.726-2.253-3.23-4.215-4.55-5.851-3.173-3.93-7.568-6.684-11.092-7.403-1.245-.254-2.36-.248-3.24.059a2.8 2.8 0 00-1.75 1.688c-.576 1.476-.393 3.826.918 7.224 17.474 45.286 26.345 56.3 37.79 70.508 6.988 8.676 14.93 18.534 26.322 37.972l-1.31.762z"/></g></svg>